<?xml version="1.0" encoding="UTF-8"?>
<svg id="gladiol" xmlns="http://www.w3.org/2000/svg" viewBox="0 0 536.21 536.21">
    <defs>
        <style>.cls-1{fill:#fff;}.cls-2{fill:#037f5f;}.cls-3{fill:#d9e693;}.cls-4{fill:#a8cb38;}</style>
    </defs>
    <g id="main-flower">
        <g id="petal-s3">
            <path class="cls-1" d="m267.55,282c-109.18,87.28,0,218.97,0,218.97,0,0,109.18-131.7,0-218.97Z"/>
            <path class="cls-2" d="m267.55,510.96l-4.91-5.92c-2.32-2.79-56.65-69.26-49.32-140.84,3.48-33.98,20.39-63.32,50.24-87.19l3.98-3.18,3.98,3.18c29.86,23.87,46.76,53.2,50.24,87.19,7.34,71.58-47,138.04-49.32,140.84l-4.91,5.92Zm0-220.7c-24.59,21.01-38.56,46.27-41.53,75.18-5.56,54.01,28.5,106.95,41.53,124.98,13.03-18.02,47.1-70.97,41.53-124.98-2.98-28.91-16.94-54.17-41.53-75.18Z"/>
            <path class="cls-3" d="m267.55,281.05c-53.38,42.67,0,107.06,0,107.06,0,0,53.38-64.39,0-107.06Z"/>
        </g>
        <g id="petal-s2">
            <path class="cls-1" d="m267.55,281.9c131.91,48.79,194-109.49,194-109.49,0,0-171.26-26.58-194,109.49Z"/>
            <path class="cls-2" d="m316.53,297.54c-16.62,0-33.74-3.21-51.19-9.66l-4.95-1.83.87-5.2c9.76-58.39,47.93-96.75,110.4-110.94,46.31-10.51,89.06-4.08,90.86-3.8l7.86,1.22-2.91,7.41c-.65,1.66-16.35,41.13-48.86,75.12-30.25,31.63-64.92,47.68-102.09,47.68Zm-41.72-19.85c49.98,16.66,95.16,4.44,134.35-36.4,22.6-23.54,36.92-50.58,43.03-63.53-14.47-1.3-45.73-2.74-78.04,4.65-55.71,12.75-89.11,44.79-99.35,95.27Z"/>
            <path class="cls-3" d="m267.55,281c64.49,23.85,94.85-53.53,94.85-53.53,0,0-83.73-12.99-94.85,53.53Z"/>
            <path class="cls-2" d="m350.4,203.16l-3.21-5.51c1.44-.84,35.85-20.53,87.85-15.35l-.63,6.35c-49.82-4.96-83.67,14.32-84.01,14.52Z"/>
        </g>
        <g id="petal-s1">
            <path class="cls-1" d="m73.55,172.41s62.09,158.27,194,109.49c-22.73-136.06-194-109.49-194-109.49Z"/>
            <path class="cls-2" d="m218.57,297.54c-37.18,0-71.84-16.05-102.09-47.68-32.51-33.99-48.21-73.45-48.86-75.12l-2.91-7.41,7.86-1.22c1.8-.28,44.55-6.71,90.86,3.8,62.47,14.18,100.65,52.54,110.4,110.94l.87,5.2-4.95,1.83c-17.45,6.45-34.58,9.66-51.19,9.66Zm-135.67-119.77c6.11,12.95,20.44,39.98,43.03,63.53,39.19,40.83,84.37,53.06,134.36,36.4-10.24-50.48-43.63-82.52-99.35-95.27-32.31-7.39-63.57-5.96-78.04-4.65Z"/>
            <path class="cls-3" d="m172.7,227.47s30.35,77.38,94.85,53.53c-11.11-66.52-94.85-53.53-94.85-53.53Z"/>
        </g>
        <g id="flower">
            <path id="flower-base" class="cls-1" d="m300.94,263.46c103.64-99.8-32.79-229.41-32.79-229.41,0,0-136.46,129.65-32.76,229.45C94.95,225.36,48.27,405.89,48.27,405.89c0,0,183.74,50.86,219.83-87.77,36.1,138.63,219.83,87.77,219.83,87.77,0,0-46.65-180.43-187-142.43Z"/>
            <path id="flower-outline" class="cls-2" d="m414.43,421.48c-30.07,0-64.41-4.9-93.65-21.76-24.26-13.99-41.92-34.52-52.67-61.2-10.75,26.67-28.41,47.21-52.67,61.2-68.42,39.45-164.79,13.44-168.86,12.32l-6.04-1.67,1.57-6.07c1.01-3.92,25.59-96.44,92.95-135.57,24.98-14.51,52.6-19.69,82.31-15.47-18.19-22.68-27.34-48.19-27.25-76.06.25-77.15,70.65-144.92,73.64-147.77l4.39-4.17,4.39,4.17c3,2.85,73.38,70.6,73.64,147.75.09,27.87-9.05,53.38-27.24,76.06,29.69-4.2,57.29.99,82.26,15.51,67.33,39.15,91.89,131.63,92.91,135.55l1.57,6.07-6.04,1.67c-2.33.64-34.93,9.45-75.21,9.45Zm-146.33-128.67l6.17,23.7c8.47,32.54,26.26,56.81,52.87,72.16,54.26,31.28,130.52,17.58,152.77,12.6-6.69-21.16-32.09-90.69-85.17-121.53-27.33-15.88-58.33-19.29-92.14-10.13l-24,6.5,17.91-17.25c24.58-23.67,37-51.13,36.91-81.6-.18-60.98-50-118.06-65.28-134.13-15.27,16.06-65.11,73.15-65.28,134.14-.09,30.48,12.34,57.95,36.95,81.62l17.95,17.28-24.05-6.53c-33.84-9.19-64.87-5.8-92.22,10.07-53.11,30.82-78.52,100.37-85.21,121.54,22.27,4.97,98.63,18.65,152.81-12.62,26.59-15.34,44.36-39.61,52.83-72.13l6.17-23.7Z"/>
        </g>
        <g id="petal-3">
            <path class="cls-3" d="m160.73,342.71s34.19-87.15,106.82-60.29c-12.52,74.92-106.82,60.29-106.82,60.29Z"/>
            <path class="cls-2" d="m122.71,402.57c-26.35,0-42.01-3.78-42.85-3.99l1.53-6.19c.26.06,26.48,6.35,67.69,2.57l.58,6.35c-9.9.91-18.92,1.26-26.95,1.26Z"/>
        </g>
        <g id="petal-2">
            <path class="cls-2" d="m446.01,359.56c-31.22-61.04-64.34-69.01-64.67-69.08l1.34-6.24c1.46.31,36.24,8.33,69.01,72.41l-5.68,2.9Z"/>
            <path class="cls-2" d="m454.55,376.85c-.7-2.73-3.98-8.97-5.19-11.14l5.57-3.09c.49.87,4.77,8.64,5.79,12.66l-6.18,1.58Z"/>
            <path class="cls-3" d="m267.55,282.43c72.63-26.86,106.82,60.29,106.82,60.29,0,0-94.3,14.63-106.82-60.29Z"/>
        </g>
        <g id="petal-1">
            <path class="cls-3" d="m267.55,282.37c-60.11-48.06,0-120.57,0-120.57,0,0,60.11,72.51,0,120.57Z"/>
        </g>
    </g>
</svg>